<mxfile host="app.diagrams.net" modified="2024-01-30T14:58:31.183Z" agent="Mozilla/5.0 (X11; Linux x86_64) AppleWebKit/537.36 (KHTML, like Gecko) Chrome/121.0.0.0 Safari/537.36" etag="QuwfxQCvL5410WPXgUPl" version="23.0.0" type="google">
  <diagram name="Page-1" id="lj14DP_Ui7PQcHRNxOAb">
    <mxGraphModel grid="1" page="1" gridSize="10" guides="1" tooltips="1" connect="1" arrows="1" fold="1" pageScale="1" pageWidth="1169" pageHeight="827" math="0" shadow="0">
      <root>
        <mxCell id="0" />
        <mxCell id="1" parent="0" />
        <mxCell id="hxtU8cXR1wRf4w4AqUJd-11" value="Document" style="swimlane;fontStyle=1;childLayout=stackLayout;horizontal=1;startSize=30;horizontalStack=0;resizeParent=1;resizeParentMax=0;resizeLast=0;collapsible=1;marginBottom=0;whiteSpace=wrap;html=1;" vertex="1" parent="1">
          <mxGeometry x="49.94" y="673" width="240" height="120" as="geometry" />
        </mxCell>
        <mxCell id="hxtU8cXR1wRf4w4AqUJd-12" value="name: CharField" style="text;strokeColor=none;fillColor=none;align=left;verticalAlign=middle;spacingLeft=4;spacingRight=4;overflow=hidden;points=[[0,0.5],[1,0.5]];portConstraint=eastwest;rotatable=0;whiteSpace=wrap;html=1;" vertex="1" parent="hxtU8cXR1wRf4w4AqUJd-11">
          <mxGeometry y="30" width="240" height="30" as="geometry" />
        </mxCell>
        <mxCell id="hxtU8cXR1wRf4w4AqUJd-13" value="created_at: DateTimeField" style="text;strokeColor=none;fillColor=none;align=left;verticalAlign=middle;spacingLeft=4;spacingRight=4;overflow=hidden;points=[[0,0.5],[1,0.5]];portConstraint=eastwest;rotatable=0;whiteSpace=wrap;html=1;" vertex="1" parent="hxtU8cXR1wRf4w4AqUJd-11">
          <mxGeometry y="60" width="240" height="30" as="geometry" />
        </mxCell>
        <mxCell id="dXZhG8cvZKiFUM5ee4LM-6" value="template_data_mapping_id: ForeignKey" style="text;strokeColor=none;fillColor=none;align=left;verticalAlign=middle;spacingLeft=4;spacingRight=4;overflow=hidden;points=[[0,0.5],[1,0.5]];portConstraint=eastwest;rotatable=0;whiteSpace=wrap;html=1;" vertex="1" parent="hxtU8cXR1wRf4w4AqUJd-11">
          <mxGeometry y="90" width="240" height="30" as="geometry" />
        </mxCell>
        <mxCell id="hxtU8cXR1wRf4w4AqUJd-15" value="TemplateDataMapping" style="swimlane;fontStyle=1;childLayout=stackLayout;horizontal=1;startSize=30;horizontalStack=0;resizeParent=1;resizeParentMax=0;resizeLast=0;collapsible=1;marginBottom=0;whiteSpace=wrap;html=1;" vertex="1" parent="1">
          <mxGeometry x="614.94" y="553" width="200" height="120" as="geometry" />
        </mxCell>
        <mxCell id="hxtU8cXR1wRf4w4AqUJd-64" value="name: ChartField" style="text;strokeColor=none;fillColor=none;align=left;verticalAlign=middle;spacingLeft=4;spacingRight=4;overflow=hidden;points=[[0,0.5],[1,0.5]];portConstraint=eastwest;rotatable=0;whiteSpace=wrap;html=1;" vertex="1" parent="hxtU8cXR1wRf4w4AqUJd-15">
          <mxGeometry y="30" width="200" height="30" as="geometry" />
        </mxCell>
        <mxCell id="hxtU8cXR1wRf4w4AqUJd-16" value="mapping_expression: TextField" style="text;strokeColor=none;fillColor=none;align=left;verticalAlign=middle;spacingLeft=4;spacingRight=4;overflow=hidden;points=[[0,0.5],[1,0.5]];portConstraint=eastwest;rotatable=0;whiteSpace=wrap;html=1;" vertex="1" parent="hxtU8cXR1wRf4w4AqUJd-15">
          <mxGeometry y="60" width="200" height="30" as="geometry" />
        </mxCell>
        <mxCell id="hxtU8cXR1wRf4w4AqUJd-17" value="template_file: ForeignKey" style="text;strokeColor=none;fillColor=none;align=left;verticalAlign=middle;spacingLeft=4;spacingRight=4;overflow=hidden;points=[[0,0.5],[1,0.5]];portConstraint=eastwest;rotatable=0;whiteSpace=wrap;html=1;" vertex="1" parent="hxtU8cXR1wRf4w4AqUJd-15">
          <mxGeometry y="90" width="200" height="30" as="geometry" />
        </mxCell>
        <mxCell id="hxtU8cXR1wRf4w4AqUJd-19" value="TemplateFile" style="swimlane;fontStyle=1;childLayout=stackLayout;horizontal=1;startSize=30;horizontalStack=0;resizeParent=1;resizeParentMax=0;resizeLast=0;collapsible=1;marginBottom=0;whiteSpace=wrap;html=1;" vertex="1" parent="1">
          <mxGeometry x="614.94" y="100" width="175" height="300" as="geometry" />
        </mxCell>
        <mxCell id="dXZhG8cvZKiFUM5ee4LM-59" value="name: CharField" style="text;strokeColor=none;fillColor=none;align=left;verticalAlign=middle;spacingLeft=4;spacingRight=4;overflow=hidden;points=[[0,0.5],[1,0.5]];portConstraint=eastwest;rotatable=0;whiteSpace=wrap;html=1;" vertex="1" parent="hxtU8cXR1wRf4w4AqUJd-19">
          <mxGeometry y="30" width="175" height="30" as="geometry" />
        </mxCell>
        <mxCell id="hxtU8cXR1wRf4w4AqUJd-63" value="template: ForeignKey" style="text;strokeColor=none;fillColor=none;align=left;verticalAlign=middle;spacingLeft=4;spacingRight=4;overflow=hidden;points=[[0,0.5],[1,0.5]];portConstraint=eastwest;rotatable=0;whiteSpace=wrap;html=1;" vertex="1" parent="hxtU8cXR1wRf4w4AqUJd-19">
          <mxGeometry y="60" width="175" height="30" as="geometry" />
        </mxCell>
        <mxCell id="hxtU8cXR1wRf4w4AqUJd-20" value="created_at: DateTimeField" style="text;strokeColor=none;fillColor=none;align=left;verticalAlign=middle;spacingLeft=4;spacingRight=4;overflow=hidden;points=[[0,0.5],[1,0.5]];portConstraint=eastwest;rotatable=0;whiteSpace=wrap;html=1;" vertex="1" parent="hxtU8cXR1wRf4w4AqUJd-19">
          <mxGeometry y="90" width="175" height="30" as="geometry" />
        </mxCell>
        <mxCell id="hxtU8cXR1wRf4w4AqUJd-21" value="version:&amp;nbsp;IntegerField" style="text;strokeColor=none;fillColor=none;align=left;verticalAlign=middle;spacingLeft=4;spacingRight=4;overflow=hidden;points=[[0,0.5],[1,0.5]];portConstraint=eastwest;rotatable=0;whiteSpace=wrap;html=1;" vertex="1" parent="hxtU8cXR1wRf4w4AqUJd-19">
          <mxGeometry y="120" width="175" height="30" as="geometry" />
        </mxCell>
        <mxCell id="hxtU8cXR1wRf4w4AqUJd-22" value="file: FileField" style="text;strokeColor=none;fillColor=none;align=left;verticalAlign=middle;spacingLeft=4;spacingRight=4;overflow=hidden;points=[[0,0.5],[1,0.5]];portConstraint=eastwest;rotatable=0;whiteSpace=wrap;html=1;" vertex="1" parent="hxtU8cXR1wRf4w4AqUJd-19">
          <mxGeometry y="150" width="175" height="30" as="geometry" />
        </mxCell>
        <mxCell id="dXZhG8cvZKiFUM5ee4LM-21" value="is_active: BooleanField" style="text;strokeColor=none;fillColor=none;align=left;verticalAlign=middle;spacingLeft=4;spacingRight=4;overflow=hidden;points=[[0,0.5],[1,0.5]];portConstraint=eastwest;rotatable=0;whiteSpace=wrap;html=1;" vertex="1" parent="hxtU8cXR1wRf4w4AqUJd-19">
          <mxGeometry y="180" width="175" height="30" as="geometry" />
        </mxCell>
        <mxCell id="dXZhG8cvZKiFUM5ee4LM-54" value="language: CharField" style="text;strokeColor=none;fillColor=none;align=left;verticalAlign=middle;spacingLeft=4;spacingRight=4;overflow=hidden;points=[[0,0.5],[1,0.5]];portConstraint=eastwest;rotatable=0;whiteSpace=wrap;html=1;" vertex="1" parent="hxtU8cXR1wRf4w4AqUJd-19">
          <mxGeometry y="210" width="175" height="30" as="geometry" />
        </mxCell>
        <mxCell id="dXZhG8cvZKiFUM5ee4LM-56" value="external_id: CharField" style="text;strokeColor=none;fillColor=none;align=left;verticalAlign=middle;spacingLeft=4;spacingRight=4;overflow=hidden;points=[[0,0.5],[1,0.5]];portConstraint=eastwest;rotatable=0;whiteSpace=wrap;html=1;" vertex="1" parent="hxtU8cXR1wRf4w4AqUJd-19">
          <mxGeometry y="240" width="175" height="30" as="geometry" />
        </mxCell>
        <mxCell id="dXZhG8cvZKiFUM5ee4LM-51" value="uploader: ForeignKey" style="text;strokeColor=none;fillColor=none;align=left;verticalAlign=middle;spacingLeft=4;spacingRight=4;overflow=hidden;points=[[0,0.5],[1,0.5]];portConstraint=eastwest;rotatable=0;whiteSpace=wrap;html=1;" vertex="1" parent="hxtU8cXR1wRf4w4AqUJd-19">
          <mxGeometry y="270" width="175" height="30" as="geometry" />
        </mxCell>
        <mxCell id="hxtU8cXR1wRf4w4AqUJd-23" value="Template" style="swimlane;fontStyle=1;childLayout=stackLayout;horizontal=1;startSize=30;horizontalStack=0;resizeParent=1;resizeParentMax=0;resizeLast=0;collapsible=1;marginBottom=0;whiteSpace=wrap;html=1;" vertex="1" parent="1">
          <mxGeometry x="940" y="100" width="200" height="180" as="geometry" />
        </mxCell>
        <mxCell id="hxtU8cXR1wRf4w4AqUJd-24" value="name: CharField" style="text;strokeColor=none;fillColor=none;align=left;verticalAlign=middle;spacingLeft=4;spacingRight=4;overflow=hidden;points=[[0,0.5],[1,0.5]];portConstraint=eastwest;rotatable=0;whiteSpace=wrap;html=1;" vertex="1" parent="hxtU8cXR1wRf4w4AqUJd-23">
          <mxGeometry y="30" width="200" height="30" as="geometry" />
        </mxCell>
        <mxCell id="hxtU8cXR1wRf4w4AqUJd-51" value="created_at: DateTimeField" style="text;strokeColor=none;fillColor=none;align=left;verticalAlign=middle;spacingLeft=4;spacingRight=4;overflow=hidden;points=[[0,0.5],[1,0.5]];portConstraint=eastwest;rotatable=0;whiteSpace=wrap;html=1;" vertex="1" parent="hxtU8cXR1wRf4w4AqUJd-23">
          <mxGeometry y="60" width="200" height="30" as="geometry" />
        </mxCell>
        <mxCell id="dXZhG8cvZKiFUM5ee4LM-19" value="type: CharField (Proposal, Invoice)" style="text;strokeColor=none;fillColor=none;align=left;verticalAlign=middle;spacingLeft=4;spacingRight=4;overflow=hidden;points=[[0,0.5],[1,0.5]];portConstraint=eastwest;rotatable=0;whiteSpace=wrap;html=1;" vertex="1" parent="hxtU8cXR1wRf4w4AqUJd-23">
          <mxGeometry y="90" width="200" height="30" as="geometry" />
        </mxCell>
        <mxCell id="dXZhG8cvZKiFUM5ee4LM-20" value="country: ForeignKey" style="text;strokeColor=none;fillColor=none;align=left;verticalAlign=middle;spacingLeft=4;spacingRight=4;overflow=hidden;points=[[0,0.5],[1,0.5]];portConstraint=eastwest;rotatable=0;whiteSpace=wrap;html=1;" vertex="1" parent="hxtU8cXR1wRf4w4AqUJd-23">
          <mxGeometry y="120" width="200" height="30" as="geometry" />
        </mxCell>
        <mxCell id="dXZhG8cvZKiFUM5ee4LM-41" value="supplier: ForeignKey" style="text;strokeColor=none;fillColor=none;align=left;verticalAlign=middle;spacingLeft=4;spacingRight=4;overflow=hidden;points=[[0,0.5],[1,0.5]];portConstraint=eastwest;rotatable=0;whiteSpace=wrap;html=1;" vertex="1" parent="hxtU8cXR1wRf4w4AqUJd-23">
          <mxGeometry y="150" width="200" height="30" as="geometry" />
        </mxCell>
        <mxCell id="hxtU8cXR1wRf4w4AqUJd-31" value="DocumentGenerationRequest" style="swimlane;fontStyle=1;childLayout=stackLayout;horizontal=1;startSize=30;horizontalStack=0;resizeParent=1;resizeParentMax=0;resizeLast=0;collapsible=1;marginBottom=0;whiteSpace=wrap;html=1;" vertex="1" parent="1">
          <mxGeometry x="59.94" y="233" width="220" height="300" as="geometry" />
        </mxCell>
        <mxCell id="WjZTwFKRzg2qWZM-VjdL-2" value="name: CharField" style="text;strokeColor=none;fillColor=none;align=left;verticalAlign=middle;spacingLeft=4;spacingRight=4;overflow=hidden;points=[[0,0.5],[1,0.5]];portConstraint=eastwest;rotatable=0;whiteSpace=wrap;html=1;" vertex="1" parent="hxtU8cXR1wRf4w4AqUJd-31">
          <mxGeometry y="30" width="220" height="30" as="geometry" />
        </mxCell>
        <mxCell id="hxtU8cXR1wRf4w4AqUJd-78" value="status: CharField" style="text;strokeColor=none;fillColor=none;align=left;verticalAlign=middle;spacingLeft=4;spacingRight=4;overflow=hidden;points=[[0,0.5],[1,0.5]];portConstraint=eastwest;rotatable=0;whiteSpace=wrap;html=1;" vertex="1" parent="hxtU8cXR1wRf4w4AqUJd-31">
          <mxGeometry y="60" width="220" height="30" as="geometry" />
        </mxCell>
        <mxCell id="hxtU8cXR1wRf4w4AqUJd-79" value="error: CharField" style="text;strokeColor=none;fillColor=none;align=left;verticalAlign=middle;spacingLeft=4;spacingRight=4;overflow=hidden;points=[[0,0.5],[1,0.5]];portConstraint=eastwest;rotatable=0;whiteSpace=wrap;html=1;" vertex="1" parent="hxtU8cXR1wRf4w4AqUJd-31">
          <mxGeometry y="90" width="220" height="30" as="geometry" />
        </mxCell>
        <mxCell id="dXZhG8cvZKiFUM5ee4LM-35" value="renderId: CharField" style="text;strokeColor=none;fillColor=none;align=left;verticalAlign=middle;spacingLeft=4;spacingRight=4;overflow=hidden;points=[[0,0.5],[1,0.5]];portConstraint=eastwest;rotatable=0;whiteSpace=wrap;html=1;" vertex="1" parent="hxtU8cXR1wRf4w4AqUJd-31">
          <mxGeometry y="120" width="220" height="30" as="geometry" />
        </mxCell>
        <mxCell id="dXZhG8cvZKiFUM5ee4LM-38" value="created_at: DateTimeField" style="text;strokeColor=none;fillColor=none;align=left;verticalAlign=middle;spacingLeft=4;spacingRight=4;overflow=hidden;points=[[0,0.5],[1,0.5]];portConstraint=eastwest;rotatable=0;whiteSpace=wrap;html=1;" vertex="1" parent="hxtU8cXR1wRf4w4AqUJd-31">
          <mxGeometry y="150" width="220" height="30" as="geometry" />
        </mxCell>
        <mxCell id="hxtU8cXR1wRf4w4AqUJd-34" value="document: ForeignKey" style="text;strokeColor=none;fillColor=none;align=left;verticalAlign=middle;spacingLeft=4;spacingRight=4;overflow=hidden;points=[[0,0.5],[1,0.5]];portConstraint=eastwest;rotatable=0;whiteSpace=wrap;html=1;" vertex="1" parent="hxtU8cXR1wRf4w4AqUJd-31">
          <mxGeometry y="180" width="220" height="30" as="geometry" />
        </mxCell>
        <mxCell id="dXZhG8cvZKiFUM5ee4LM-58" value="file: FileField" style="text;strokeColor=none;fillColor=none;align=left;verticalAlign=middle;spacingLeft=4;spacingRight=4;overflow=hidden;points=[[0,0.5],[1,0.5]];portConstraint=eastwest;rotatable=0;whiteSpace=wrap;html=1;" vertex="1" parent="hxtU8cXR1wRf4w4AqUJd-31">
          <mxGeometry y="210" width="220" height="30" as="geometry" />
        </mxCell>
        <mxCell id="WjZTwFKRzg2qWZM-VjdL-3" value="json_content: JSONField" style="text;strokeColor=none;fillColor=none;align=left;verticalAlign=middle;spacingLeft=4;spacingRight=4;overflow=hidden;points=[[0,0.5],[1,0.5]];portConstraint=eastwest;rotatable=0;whiteSpace=wrap;html=1;" vertex="1" parent="hxtU8cXR1wRf4w4AqUJd-31">
          <mxGeometry y="240" width="220" height="30" as="geometry" />
        </mxCell>
        <mxCell id="dXZhG8cvZKiFUM5ee4LM-39" value="user: ForeignKey" style="text;strokeColor=none;fillColor=none;align=left;verticalAlign=middle;spacingLeft=4;spacingRight=4;overflow=hidden;points=[[0,0.5],[1,0.5]];portConstraint=eastwest;rotatable=0;whiteSpace=wrap;html=1;" vertex="1" parent="hxtU8cXR1wRf4w4AqUJd-31">
          <mxGeometry y="270" width="220" height="30" as="geometry" />
        </mxCell>
        <mxCell id="dXZhG8cvZKiFUM5ee4LM-33" style="edgeStyle=orthogonalEdgeStyle;rounded=0;orthogonalLoop=1;jettySize=auto;html=1;exitX=0.5;exitY=0;exitDx=0;exitDy=0;" edge="1" parent="1" source="hxtU8cXR1wRf4w4AqUJd-47" target="hxtU8cXR1wRf4w4AqUJd-87">
          <mxGeometry relative="1" as="geometry" />
        </mxCell>
        <mxCell id="hxtU8cXR1wRf4w4AqUJd-47" value="DocumentDataFile" style="swimlane;fontStyle=1;childLayout=stackLayout;horizontal=1;startSize=30;horizontalStack=0;resizeParent=1;resizeParentMax=0;resizeLast=0;collapsible=1;marginBottom=0;whiteSpace=wrap;html=1;" vertex="1" parent="1">
          <mxGeometry x="354.94" y="393" width="180" height="150" as="geometry" />
        </mxCell>
        <mxCell id="WjZTwFKRzg2qWZM-VjdL-1" value="name: CharFIeld" style="text;strokeColor=none;fillColor=none;align=left;verticalAlign=middle;spacingLeft=4;spacingRight=4;overflow=hidden;points=[[0,0.5],[1,0.5]];portConstraint=eastwest;rotatable=0;whiteSpace=wrap;html=1;" vertex="1" parent="hxtU8cXR1wRf4w4AqUJd-47">
          <mxGeometry y="30" width="180" height="30" as="geometry" />
        </mxCell>
        <mxCell id="hxtU8cXR1wRf4w4AqUJd-48" value="file: FileField" style="text;strokeColor=none;fillColor=none;align=left;verticalAlign=middle;spacingLeft=4;spacingRight=4;overflow=hidden;points=[[0,0.5],[1,0.5]];portConstraint=eastwest;rotatable=0;whiteSpace=wrap;html=1;" vertex="1" parent="hxtU8cXR1wRf4w4AqUJd-47">
          <mxGeometry y="60" width="180" height="30" as="geometry" />
        </mxCell>
        <mxCell id="dXZhG8cvZKiFUM5ee4LM-30" value="created_at: DatetimeField" style="text;strokeColor=none;fillColor=none;align=left;verticalAlign=middle;spacingLeft=4;spacingRight=4;overflow=hidden;points=[[0,0.5],[1,0.5]];portConstraint=eastwest;rotatable=0;whiteSpace=wrap;html=1;" vertex="1" parent="hxtU8cXR1wRf4w4AqUJd-47">
          <mxGeometry y="90" width="180" height="30" as="geometry" />
        </mxCell>
        <mxCell id="hxtU8cXR1wRf4w4AqUJd-50" value="document: ForeignKey" style="text;strokeColor=none;fillColor=none;align=left;verticalAlign=middle;spacingLeft=4;spacingRight=4;overflow=hidden;points=[[0,0.5],[1,0.5]];portConstraint=eastwest;rotatable=0;whiteSpace=wrap;html=1;" vertex="1" parent="hxtU8cXR1wRf4w4AqUJd-47">
          <mxGeometry y="120" width="180" height="30" as="geometry" />
        </mxCell>
        <mxCell id="hxtU8cXR1wRf4w4AqUJd-87" value="User" style="swimlane;fontStyle=1;childLayout=stackLayout;horizontal=1;startSize=30;horizontalStack=0;resizeParent=1;resizeParentMax=0;resizeLast=0;collapsible=1;marginBottom=0;whiteSpace=wrap;html=1;" vertex="1" parent="1">
          <mxGeometry x="344.94" y="233" width="200" height="90" as="geometry" />
        </mxCell>
        <mxCell id="hxtU8cXR1wRf4w4AqUJd-88" value="email: CharField" style="text;strokeColor=none;fillColor=none;align=left;verticalAlign=middle;spacingLeft=4;spacingRight=4;overflow=hidden;points=[[0,0.5],[1,0.5]];portConstraint=eastwest;rotatable=0;whiteSpace=wrap;html=1;" vertex="1" parent="hxtU8cXR1wRf4w4AqUJd-87">
          <mxGeometry y="30" width="200" height="30" as="geometry" />
        </mxCell>
        <mxCell id="hxtU8cXR1wRf4w4AqUJd-89" value="password: CharField" style="text;strokeColor=none;fillColor=none;align=left;verticalAlign=middle;spacingLeft=4;spacingRight=4;overflow=hidden;points=[[0,0.5],[1,0.5]];portConstraint=eastwest;rotatable=0;whiteSpace=wrap;html=1;" vertex="1" parent="hxtU8cXR1wRf4w4AqUJd-87">
          <mxGeometry y="60" width="200" height="30" as="geometry" />
        </mxCell>
        <mxCell id="hxtU8cXR1wRf4w4AqUJd-95" value="" style="endArrow=classic;html=1;rounded=0;jumpStyle=none;exitX=0;exitY=0.5;exitDx=0;exitDy=0;entryX=0;entryY=0.5;entryDx=0;entryDy=0;edgeStyle=orthogonalEdgeStyle;" edge="1" parent="1" source="hxtU8cXR1wRf4w4AqUJd-34" target="hxtU8cXR1wRf4w4AqUJd-12">
          <mxGeometry relative="1" as="geometry">
            <mxPoint x="69.94" y="318" as="sourcePoint" />
            <mxPoint x="29.939999999999998" y="318" as="targetPoint" />
            <Array as="points">
              <mxPoint x="20" y="428" />
              <mxPoint x="20" y="718" />
            </Array>
          </mxGeometry>
        </mxCell>
        <mxCell id="hxtU8cXR1wRf4w4AqUJd-96" value="*" style="edgeLabel;resizable=0;html=1;align=left;verticalAlign=bottom;labelBackgroundColor=none;" connectable="0" vertex="1" parent="hxtU8cXR1wRf4w4AqUJd-95">
          <mxGeometry x="-1" relative="1" as="geometry">
            <mxPoint x="-10" y="2" as="offset" />
          </mxGeometry>
        </mxCell>
        <mxCell id="hxtU8cXR1wRf4w4AqUJd-97" value="1" style="edgeLabel;resizable=0;html=1;align=right;verticalAlign=bottom;labelBackgroundColor=none;" connectable="0" vertex="1" parent="hxtU8cXR1wRf4w4AqUJd-95">
          <mxGeometry x="1" relative="1" as="geometry">
            <mxPoint x="-2" y="19" as="offset" />
          </mxGeometry>
        </mxCell>
        <mxCell id="hxtU8cXR1wRf4w4AqUJd-113" value="" style="endArrow=classic;html=1;rounded=0;jumpStyle=none;exitX=1;exitY=0.5;exitDx=0;exitDy=0;entryX=0;entryY=0.5;entryDx=0;entryDy=0;edgeStyle=orthogonalEdgeStyle;" edge="1" parent="1" source="hxtU8cXR1wRf4w4AqUJd-63" target="hxtU8cXR1wRf4w4AqUJd-51">
          <mxGeometry relative="1" as="geometry">
            <mxPoint x="549.94" y="118" as="sourcePoint" />
            <mxPoint x="639.94" y="88" as="targetPoint" />
          </mxGeometry>
        </mxCell>
        <mxCell id="hxtU8cXR1wRf4w4AqUJd-114" value="*" style="edgeLabel;resizable=0;html=1;align=left;verticalAlign=bottom;labelBackgroundColor=none;" connectable="0" vertex="1" parent="hxtU8cXR1wRf4w4AqUJd-113">
          <mxGeometry x="-1" relative="1" as="geometry">
            <mxPoint x="-15" y="5" as="offset" />
          </mxGeometry>
        </mxCell>
        <mxCell id="hxtU8cXR1wRf4w4AqUJd-115" value="1" style="edgeLabel;resizable=0;html=1;align=right;verticalAlign=bottom;labelBackgroundColor=none;" connectable="0" vertex="1" parent="hxtU8cXR1wRf4w4AqUJd-113">
          <mxGeometry x="1" relative="1" as="geometry">
            <mxPoint x="-9" as="offset" />
          </mxGeometry>
        </mxCell>
        <mxCell id="hxtU8cXR1wRf4w4AqUJd-116" value="" style="endArrow=classic;html=1;rounded=0;jumpStyle=none;exitX=1;exitY=0.5;exitDx=0;exitDy=0;entryX=0;entryY=0.5;entryDx=0;entryDy=0;edgeStyle=orthogonalEdgeStyle;" edge="1" parent="1" source="dXZhG8cvZKiFUM5ee4LM-6" target="hxtU8cXR1wRf4w4AqUJd-64">
          <mxGeometry relative="1" as="geometry">
            <mxPoint x="644.94" y="393" as="sourcePoint" />
            <mxPoint x="569.94" y="293" as="targetPoint" />
          </mxGeometry>
        </mxCell>
        <mxCell id="hxtU8cXR1wRf4w4AqUJd-117" value="*" style="edgeLabel;resizable=0;html=1;align=left;verticalAlign=bottom;labelBackgroundColor=none;" connectable="0" vertex="1" parent="hxtU8cXR1wRf4w4AqUJd-116">
          <mxGeometry x="-1" relative="1" as="geometry">
            <mxPoint y="5" as="offset" />
          </mxGeometry>
        </mxCell>
        <mxCell id="hxtU8cXR1wRf4w4AqUJd-118" value="1" style="edgeLabel;resizable=0;html=1;align=right;verticalAlign=bottom;labelBackgroundColor=none;" connectable="0" vertex="1" parent="hxtU8cXR1wRf4w4AqUJd-116">
          <mxGeometry x="1" relative="1" as="geometry">
            <mxPoint x="-8" y="-2" as="offset" />
          </mxGeometry>
        </mxCell>
        <mxCell id="hxtU8cXR1wRf4w4AqUJd-119" value="" style="endArrow=classic;html=1;rounded=0;jumpStyle=none;exitX=0;exitY=0.5;exitDx=0;exitDy=0;entryX=1;entryY=0.5;entryDx=0;entryDy=0;edgeStyle=orthogonalEdgeStyle;" edge="1" parent="1" source="hxtU8cXR1wRf4w4AqUJd-50" target="hxtU8cXR1wRf4w4AqUJd-12">
          <mxGeometry relative="1" as="geometry">
            <mxPoint x="299.94" y="608" as="sourcePoint" />
            <mxPoint x="632.94" y="533" as="targetPoint" />
          </mxGeometry>
        </mxCell>
        <mxCell id="hxtU8cXR1wRf4w4AqUJd-120" value="*" style="edgeLabel;resizable=0;html=1;align=left;verticalAlign=bottom;labelBackgroundColor=none;" connectable="0" vertex="1" parent="hxtU8cXR1wRf4w4AqUJd-119">
          <mxGeometry x="-1" relative="1" as="geometry">
            <mxPoint x="-8" y="4" as="offset" />
          </mxGeometry>
        </mxCell>
        <mxCell id="hxtU8cXR1wRf4w4AqUJd-121" value="1" style="edgeLabel;resizable=0;html=1;align=right;verticalAlign=bottom;labelBackgroundColor=none;" connectable="0" vertex="1" parent="hxtU8cXR1wRf4w4AqUJd-119">
          <mxGeometry x="1" relative="1" as="geometry">
            <mxPoint x="17" as="offset" />
          </mxGeometry>
        </mxCell>
        <mxCell id="hxtU8cXR1wRf4w4AqUJd-122" value="" style="endArrow=classic;html=1;rounded=0;jumpStyle=none;exitX=1;exitY=0.5;exitDx=0;exitDy=0;entryX=1;entryY=0.5;entryDx=0;entryDy=0;edgeStyle=orthogonalEdgeStyle;" edge="1" parent="1" source="hxtU8cXR1wRf4w4AqUJd-17" target="hxtU8cXR1wRf4w4AqUJd-20">
          <mxGeometry relative="1" as="geometry">
            <mxPoint x="299.94" y="608" as="sourcePoint" />
            <mxPoint x="632.94" y="533" as="targetPoint" />
            <Array as="points">
              <mxPoint x="870" y="658" />
              <mxPoint x="870" y="205" />
            </Array>
          </mxGeometry>
        </mxCell>
        <mxCell id="hxtU8cXR1wRf4w4AqUJd-123" value="*" style="edgeLabel;resizable=0;html=1;align=left;verticalAlign=bottom;labelBackgroundColor=none;" connectable="0" vertex="1" parent="hxtU8cXR1wRf4w4AqUJd-122">
          <mxGeometry x="-1" relative="1" as="geometry">
            <mxPoint x="1" y="16" as="offset" />
          </mxGeometry>
        </mxCell>
        <mxCell id="hxtU8cXR1wRf4w4AqUJd-124" value="1" style="edgeLabel;resizable=0;html=1;align=right;verticalAlign=bottom;labelBackgroundColor=none;" connectable="0" vertex="1" parent="hxtU8cXR1wRf4w4AqUJd-122">
          <mxGeometry x="1" relative="1" as="geometry">
            <mxPoint x="20" as="offset" />
          </mxGeometry>
        </mxCell>
        <mxCell id="dXZhG8cvZKiFUM5ee4LM-32" style="edgeStyle=orthogonalEdgeStyle;rounded=0;orthogonalLoop=1;jettySize=auto;html=1;exitX=1;exitY=0.5;exitDx=0;exitDy=0;" edge="1" parent="1" source="dXZhG8cvZKiFUM5ee4LM-39" target="hxtU8cXR1wRf4w4AqUJd-88">
          <mxGeometry relative="1" as="geometry" />
        </mxCell>
        <mxCell id="dXZhG8cvZKiFUM5ee4LM-46" value="Supplier" style="swimlane;fontStyle=1;childLayout=stackLayout;horizontal=1;startSize=30;horizontalStack=0;resizeParent=1;resizeParentMax=0;resizeLast=0;collapsible=1;marginBottom=0;whiteSpace=wrap;html=1;" vertex="1" parent="1">
          <mxGeometry x="910" y="483" width="190" height="60" as="geometry" />
        </mxCell>
        <mxCell id="dXZhG8cvZKiFUM5ee4LM-48" value="name: CharField" style="text;strokeColor=none;fillColor=none;align=left;verticalAlign=middle;spacingLeft=4;spacingRight=4;overflow=hidden;points=[[0,0.5],[1,0.5]];portConstraint=eastwest;rotatable=0;whiteSpace=wrap;html=1;" vertex="1" parent="dXZhG8cvZKiFUM5ee4LM-46">
          <mxGeometry y="30" width="190" height="30" as="geometry" />
        </mxCell>
        <mxCell id="dXZhG8cvZKiFUM5ee4LM-50" style="edgeStyle=orthogonalEdgeStyle;rounded=0;orthogonalLoop=1;jettySize=auto;html=1;exitX=1;exitY=0.5;exitDx=0;exitDy=0;entryX=1;entryY=0.5;entryDx=0;entryDy=0;" edge="1" parent="1" source="dXZhG8cvZKiFUM5ee4LM-41" target="dXZhG8cvZKiFUM5ee4LM-48">
          <mxGeometry relative="1" as="geometry" />
        </mxCell>
        <mxCell id="dXZhG8cvZKiFUM5ee4LM-57" style="edgeStyle=orthogonalEdgeStyle;rounded=0;orthogonalLoop=1;jettySize=auto;html=1;exitX=0;exitY=0.5;exitDx=0;exitDy=0;entryX=1;entryY=0.25;entryDx=0;entryDy=0;" edge="1" parent="1" source="dXZhG8cvZKiFUM5ee4LM-51" target="hxtU8cXR1wRf4w4AqUJd-87">
          <mxGeometry relative="1" as="geometry" />
        </mxCell>
        <mxCell id="dXZhG8cvZKiFUM5ee4LM-60" value="Country" style="swimlane;fontStyle=1;childLayout=stackLayout;horizontal=1;startSize=30;horizontalStack=0;resizeParent=1;resizeParentMax=0;resizeLast=0;collapsible=1;marginBottom=0;whiteSpace=wrap;html=1;" vertex="1" parent="1">
          <mxGeometry x="910" y="360" width="190" height="60" as="geometry" />
        </mxCell>
        <mxCell id="dXZhG8cvZKiFUM5ee4LM-61" value="country: CountryField" style="text;strokeColor=none;fillColor=none;align=left;verticalAlign=middle;spacingLeft=4;spacingRight=4;overflow=hidden;points=[[0,0.5],[1,0.5]];portConstraint=eastwest;rotatable=0;whiteSpace=wrap;html=1;" vertex="1" parent="dXZhG8cvZKiFUM5ee4LM-60">
          <mxGeometry y="30" width="190" height="30" as="geometry" />
        </mxCell>
        <mxCell id="dXZhG8cvZKiFUM5ee4LM-62" style="edgeStyle=orthogonalEdgeStyle;rounded=0;orthogonalLoop=1;jettySize=auto;html=1;exitX=0;exitY=0.5;exitDx=0;exitDy=0;entryX=0;entryY=0.5;entryDx=0;entryDy=0;" edge="1" parent="1" source="dXZhG8cvZKiFUM5ee4LM-20" target="dXZhG8cvZKiFUM5ee4LM-61">
          <mxGeometry relative="1" as="geometry" />
        </mxCell>
      </root>
    </mxGraphModel>
  </diagram>
</mxfile>
